<?xml version="1.0" standalone="no"?>
<!DOCTYPE svg PUBLIC "-//W3C//DTD SVG 20010904//EN"
 "http://www.w3.org/TR/2001/REC-SVG-20010904/DTD/svg10.dtd">
<svg version="1.0" xmlns="http://www.w3.org/2000/svg"
 width="1544.000000pt" height="1600.000000pt" viewBox="0 0 1544.000000 1600.000000"
 preserveAspectRatio="xMidYMid meet">

<g transform="translate(0.000000,1600.000000) scale(0.100000,-0.100000)"
fill="#000000" stroke="none">
<path d="M8630 14444 c-52 -7 -126 -20 -165 -29 -170 -39 -398 -83 -485 -94
-52 -7 -124 -17 -160 -22 -96 -14 -498 -39 -630 -39 -111 0 -286 17 -400 39
-380 72 -708 100 -825 70 -22 -5 -137 -10 -256 -9 -306 1 -492 -28 -814 -127
-111 -34 -402 -141 -470 -173 -11 -5 -92 -37 -180 -71 -88 -34 -189 -72 -224
-86 -35 -14 -152 -54 -260 -89 -108 -35 -215 -73 -238 -84 -24 -11 -45 -20
-49 -20 -12 0 -191 -93 -263 -137 -354 -215 -652 -525 -878 -913 -47 -80 -153
-293 -153 -306 0 -4 -20 -54 -44 -113 -25 -58 -61 -149 -81 -201 -20 -52 -41
-104 -46 -115 -4 -11 -27 -67 -49 -125 -23 -58 -61 -153 -86 -212 -24 -59 -44
-110 -44 -113 0 -3 -20 -54 -44 -113 -25 -59 -79 -195 -121 -302 -88 -224
-132 -336 -145 -365 -4 -11 -14 -36 -20 -55 -7 -19 -19 -48 -26 -65 -11 -28
-23 -58 -89 -233 -69 -181 -131 -334 -171 -420 -19 -41 -34 -75 -34 -77 0 -10
-83 -181 -89 -185 -5 -3 -11 -18 -14 -35 -3 -16 -19 -68 -37 -115 -97 -266
-116 -440 -61 -555 44 -95 130 -172 264 -238 108 -53 142 -69 217 -98 139 -54
369 -189 518 -306 27 -21 62 -48 78 -60 16 -12 47 -36 69 -52 22 -17 60 -45
85 -63 25 -17 47 -35 50 -38 12 -16 191 -128 250 -157 153 -74 238 -102 465
-153 178 -40 485 -54 577 -25 91 27 148 70 226 171 l22 29 -7 -35 c-5 -19 -6
-192 -4 -385 4 -398 -12 -675 -54 -965 -19 -129 -42 -338 -55 -495 -10 -118
-20 -214 -50 -495 -16 -138 -47 -338 -75 -470 -8 -36 -21 -101 -30 -145 -8
-44 -22 -107 -29 -140 -39 -169 -84 -378 -106 -485 -25 -126 -86 -353 -138
-520 -70 -220 -138 -443 -156 -513 -8 -29 -46 -151 -86 -272 -105 -321 -133
-449 -133 -610 -1 -139 5 -161 65 -241 95 -127 338 -228 683 -284 160 -26 237
-45 465 -120 47 -15 119 -38 160 -50 41 -12 85 -26 97 -31 12 -4 66 -20 120
-35 284 -76 407 -103 587 -129 59 -9 129 -20 155 -24 25 -5 87 -14 136 -21 50
-6 131 -17 180 -25 50 -8 133 -19 185 -25 52 -6 142 -17 200 -25 58 -7 159
-19 225 -25 66 -6 179 -17 250 -25 72 -7 200 -18 285 -24 85 -6 236 -16 335
-23 245 -18 1332 -18 1555 0 360 28 429 34 545 48 66 8 161 19 210 25 50 6
126 17 170 24 44 7 116 18 160 25 44 6 109 18 145 25 36 8 101 21 145 29 44 8
134 27 200 41 148 32 340 71 420 86 33 6 89 16 125 24 36 7 92 19 125 25 139
29 366 95 440 130 11 5 54 23 95 41 84 36 198 106 248 153 43 39 93 117 118
181 31 80 26 318 -9 495 -39 194 -54 274 -67 365 -6 44 -18 114 -25 155 -7 41
-18 113 -24 160 -7 47 -18 121 -26 165 -7 44 -18 118 -25 165 -6 47 -17 119
-25 160 -7 41 -18 113 -25 160 -6 47 -17 114 -25 150 -23 113 -38 194 -40 220
-2 23 -15 88 -35 170 -5 19 -16 71 -25 115 -23 116 -71 305 -106 420 -85 279
-81 251 -90 670 -7 367 -13 459 -38 610 -24 140 -40 242 -50 325 -30 235 -41
337 -41 393 0 66 -12 177 -35 322 -7 50 -19 126 -25 170 -7 44 -18 118 -26
165 -7 46 -16 159 -19 250 -5 153 -4 162 10 127 41 -105 134 -265 187 -323 93
-100 112 -104 441 -104 215 0 298 4 397 19 69 10 136 23 150 29 14 5 43 15 65
22 51 15 161 56 200 74 136 63 227 112 485 260 113 65 279 157 370 204 177 91
350 189 415 234 22 16 65 46 95 67 67 48 233 217 283 288 53 76 87 148 87 184
0 41 -19 79 -85 168 -83 112 -134 224 -219 481 -43 129 -88 264 -101 300 -13
36 -38 106 -55 155 -40 114 -147 397 -170 450 -9 22 -23 56 -30 75 -7 19 -28
68 -47 108 -18 41 -33 75 -33 77 0 3 -54 119 -141 302 -21 45 -39 84 -39 87 0
3 -17 42 -38 88 -21 46 -49 110 -62 143 -13 33 -27 65 -32 71 -4 6 -14 30 -22
53 -9 23 -22 56 -30 74 -8 17 -38 91 -66 162 -28 72 -55 139 -60 150 -5 11
-28 67 -51 125 -22 58 -52 128 -65 157 -13 28 -24 54 -24 57 0 10 -162 339
-195 396 -18 30 -44 75 -57 100 -56 100 -239 385 -257 400 -3 3 -19 23 -35 45
-145 198 -471 444 -756 572 -41 19 -88 40 -105 48 -74 36 -374 140 -510 177
-22 6 -60 16 -85 23 -25 7 -56 16 -70 19 -14 4 -50 13 -80 22 -30 8 -73 19
-95 23 -22 5 -94 23 -160 41 -66 18 -138 36 -160 41 -22 4 -67 15 -100 25 -88
24 -225 53 -510 109 -312 61 -698 82 -935 49z m370 -96 c0 -21 -93 -200 -107
-205 -7 -3 -36 1 -64 7 -32 8 -122 13 -229 12 -172 0 -296 -13 -460 -47 -36
-7 -94 -19 -130 -25 -36 -6 -94 -18 -130 -25 -36 -8 -92 -19 -125 -26 -33 -6
-89 -17 -125 -24 -36 -7 -117 -18 -180 -25 -63 -6 -140 -16 -170 -21 -110 -20
-281 -22 -440 -5 -209 22 -309 35 -410 51 -216 35 -500 50 -610 32 l-45 -7
-36 57 c-38 59 -79 140 -79 155 0 4 32 8 71 8 55 0 75 -4 84 -16 9 -14 16 -14
34 -5 38 21 182 41 291 41 100 0 277 -18 385 -39 28 -5 84 -15 125 -21 41 -6
98 -16 125 -21 109 -21 296 -39 415 -39 145 0 541 24 650 39 41 6 111 16 155
22 102 13 244 40 460 87 50 10 126 25 170 31 44 7 87 14 95 16 8 1 75 3 148 4
96 1 132 -2 132 -11z m232 -9 l108 -12 -6 -26 c-3 -14 -40 -96 -82 -181 -211
-432 -510 -737 -917 -935 -281 -137 -554 -207 -918 -236 -193 -15 -297 -5
-607 61 -58 12 -272 87 -360 126 -162 71 -365 192 -490 293 -25 20 -61 48 -80
62 -48 36 -308 301 -363 370 -84 105 -227 330 -227 357 0 9 187 42 239 42 27
0 33 -5 48 -42 105 -262 409 -561 798 -785 227 -131 499 -235 735 -280 90 -17
301 -19 408 -3 118 17 305 62 387 92 28 11 70 26 93 34 75 26 293 140 382 200
93 62 217 161 293 233 50 48 190 215 223 267 10 16 22 34 27 39 29 36 82 131
128 229 29 62 58 112 64 111 5 -2 58 -9 117 -16z m418 -63 c241 -48 600 -137
1145 -281 66 -17 348 -110 380 -125 11 -5 43 -18 70 -29 100 -39 298 -138 400
-201 171 -105 372 -284 484 -430 133 -174 323 -490 434 -720 73 -152 122 -266
214 -495 101 -255 238 -583 279 -672 19 -40 34 -74 34 -77 0 -5 96 -212 110
-238 25 -45 210 -471 210 -483 0 -4 6 -21 14 -38 33 -71 165 -444 277 -777 45
-135 93 -270 106 -300 l24 -55 -158 -155 c-149 -145 -285 -267 -378 -335 -33
-25 -111 -85 -161 -124 -41 -32 -307 -209 -389 -259 -296 -178 -590 -292 -880
-342 -38 -7 -92 -16 -120 -22 -83 -16 -391 -37 -537 -38 -162 0 -146 -12 -206
150 -60 161 -70 197 -87 300 -8 52 -23 127 -34 165 -10 39 -22 102 -25 140 -4
39 -11 106 -17 150 -5 44 -14 118 -20 165 -5 47 -16 128 -24 180 -26 167 -45
364 -45 460 0 183 44 375 130 570 134 307 183 459 236 750 37 199 43 234 39
238 -2 3 -6 -6 -9 -19 -88 -430 -150 -624 -292 -912 -112 -227 -144 -336 -165
-556 -14 -144 -3 -378 27 -610 8 -63 15 -167 15 -230 0 -154 23 -308 72 -491
18 -67 20 -109 22 -395 1 -247 5 -341 17 -410 9 -49 21 -124 28 -165 6 -41 17
-115 25 -165 26 -163 35 -249 35 -317 0 -36 7 -122 15 -190 8 -67 20 -163 26
-213 6 -49 17 -124 24 -165 7 -41 18 -115 25 -165 6 -49 16 -119 22 -155 6
-36 14 -236 18 -445 4 -209 12 -400 18 -425 11 -50 27 -108 71 -255 66 -217
151 -596 201 -900 6 -38 17 -104 25 -145 7 -41 18 -111 25 -155 13 -91 35
-233 55 -350 7 -44 18 -118 25 -165 6 -47 17 -121 25 -165 8 -44 19 -114 25
-155 6 -41 17 -109 25 -150 8 -41 19 -104 25 -140 6 -36 16 -85 21 -109 9 -39
8 -46 -13 -68 -19 -21 -180 -123 -192 -123 -3 0 -37 -15 -78 -34 -180 -83
-427 -158 -826 -251 -142 -33 -199 -46 -242 -54 -25 -5 -88 -18 -140 -29 -138
-28 -204 -41 -305 -58 -49 -8 -126 -21 -170 -29 -44 -7 -116 -18 -160 -24 -44
-6 -127 -17 -185 -25 -103 -14 -222 -26 -485 -46 -579 -46 -2032 -46 -2485 0
-58 6 -157 15 -220 21 -63 6 -155 17 -205 24 -49 8 -128 19 -175 25 -47 6
-116 18 -155 25 -38 7 -104 18 -145 25 -41 6 -109 18 -150 26 -41 8 -100 19
-130 25 -30 5 -84 16 -120 24 -36 7 -92 19 -125 26 -33 7 -103 23 -155 36 -52
14 -102 26 -110 28 -86 18 -325 98 -561 188 -107 41 -211 80 -230 85 -19 6
-52 17 -74 26 -95 35 -213 78 -255 92 -25 8 -58 21 -75 28 -16 8 -68 28 -115
46 -47 17 -103 40 -125 50 -22 9 -68 30 -102 45 -35 15 -63 31 -63 35 0 4 34
110 75 235 41 124 82 257 91 293 8 37 22 85 29 107 8 22 30 94 50 160 20 66
43 138 50 160 59 172 124 405 151 540 7 39 21 104 30 145 8 41 19 93 24 115 5
22 15 69 24 105 8 36 23 99 31 140 9 41 29 138 46 215 16 77 34 165 39 195 5
30 13 78 19 105 17 88 56 395 71 565 6 69 17 190 26 270 8 80 19 192 24 250 6
58 17 148 25 200 44 303 59 592 51 965 -7 329 -3 376 44 514 78 237 97 330
110 561 6 113 18 230 25 260 7 30 18 84 23 120 26 162 45 275 68 395 19 104
24 163 24 291 0 255 -38 418 -205 869 -37 99 -80 223 -96 275 -16 52 -36 115
-44 140 -14 45 -22 85 -49 230 l-14 75 -1 -53 c-1 -29 5 -81 13 -115 8 -34 19
-91 26 -127 6 -36 17 -85 24 -110 8 -25 19 -63 25 -85 6 -22 40 -130 76 -240
36 -110 70 -218 76 -240 36 -126 42 -148 81 -315 8 -35 13 -126 13 -250 0
-124 -5 -215 -13 -250 -34 -144 -42 -180 -56 -245 -8 -38 -20 -101 -27 -140
-7 -38 -18 -77 -24 -85 -6 -8 -17 -42 -24 -75 -8 -33 -19 -80 -27 -105 -8 -25
-16 -58 -18 -75 -16 -106 -109 -501 -121 -514 -2 -2 -50 6 -107 17 -134 26
-262 48 -368 62 -319 41 -534 89 -704 156 -100 40 -256 122 -316 166 -145 108
-209 160 -355 287 -35 31 -149 119 -185 143 -237 160 -317 223 -425 332 -56
56 -112 122 -126 147 l-25 45 56 129 c31 72 69 157 84 190 28 59 71 167 136
335 18 47 43 112 55 145 13 33 40 103 60 155 20 52 62 158 92 235 30 77 93
237 140 355 46 118 88 224 93 235 5 11 28 67 50 125 23 58 46 116 52 130 5 14
37 93 69 175 33 83 64 159 69 170 5 11 39 95 75 188 71 182 123 296 180 397
21 36 46 81 57 100 70 123 234 337 351 459 64 66 225 205 291 252 27 19 65 45
85 59 168 118 373 211 681 308 86 27 410 147 465 172 11 5 67 28 125 50 58 23
114 45 125 50 53 25 379 137 460 158 22 5 65 17 96 26 31 9 63 16 71 16 10 0
36 -37 67 -94 198 -371 557 -722 976 -953 190 -105 478 -210 665 -242 36 -6
103 -18 149 -26 221 -39 628 -3 921 82 196 57 435 159 565 242 248 159 470
378 633 626 58 89 164 293 207 400 l29 71 55 -7 c31 -4 112 -19 181 -33z
m-863 -187 c35 -6 63 -15 63 -19 0 -17 -128 -178 -205 -258 -44 -46 -109 -107
-145 -135 -36 -28 -67 -54 -70 -58 -10 -12 -187 -127 -252 -162 -209 -116
-482 -198 -762 -230 -106 -13 -130 -12 -235 4 -64 9 -143 25 -176 34 -33 9
-73 20 -90 25 -36 9 -138 46 -182 66 -17 8 -34 14 -37 14 -4 0 -52 23 -107 50
-254 127 -470 277 -654 453 -112 108 -112 111 -11 121 59 6 302 -13 416 -33
30 -5 98 -14 150 -21 52 -6 138 -18 190 -25 134 -20 426 -29 540 -16 303 33
416 48 520 70 25 5 74 15 110 21 36 7 79 16 96 21 17 5 82 18 145 29 63 10
141 24 174 30 178 30 407 39 522 19z m-7489 -4746 c48 -47 120 -111 161 -142
80 -60 80 -60 192 -135 79 -53 191 -136 199 -147 5 -7 75 -65 255 -211 352
-286 596 -373 1315 -469 82 -11 214 -35 271 -50 20 -5 46 -9 58 -9 30 0 27
-16 -21 -111 -54 -108 -113 -172 -184 -199 -133 -49 -517 -9 -793 84 -172 58
-325 144 -500 281 -139 108 -303 229 -399 294 -90 60 -290 164 -377 195 -96
35 -270 127 -318 167 -26 23 -61 64 -77 93 -50 86 -41 203 34 429 14 43 28 83
32 88 3 5 19 -9 36 -32 16 -22 69 -79 116 -126z m12582 -75 c6 -13 26 -43 45
-68 19 -25 46 -64 61 -87 l26 -43 -35 -62 c-71 -126 -217 -274 -381 -384 -102
-69 -215 -133 -441 -249 -91 -47 -183 -96 -206 -110 -22 -14 -50 -30 -62 -35
-12 -6 -31 -16 -41 -22 -57 -37 -126 -78 -130 -78 -3 0 -29 -14 -58 -31 -29
-18 -82 -47 -118 -67 -36 -19 -83 -44 -105 -56 -54 -30 -224 -99 -305 -125
-140 -45 -208 -51 -541 -51 -311 0 -317 0 -349 23 -29 19 -140 168 -140 187 0
4 107 10 238 13 283 8 366 17 622 68 102 21 241 63 380 115 139 52 345 156
448 225 24 16 45 29 48 29 13 0 261 170 393 269 219 166 336 266 498 429 70
71 131 130 136 130 4 1 12 -8 17 -20z m-10660 -6659 c41 -17 89 -36 105 -43
39 -18 105 -42 470 -173 116 -41 260 -94 322 -119 62 -24 115 -44 119 -44 3 0
20 -6 37 -14 38 -16 105 -39 167 -56 25 -7 55 -16 67 -21 36 -14 442 -110 543
-128 30 -6 89 -17 130 -25 41 -8 109 -20 150 -26 41 -6 104 -18 140 -25 65
-13 114 -21 310 -49 224 -33 330 -45 465 -55 77 -6 199 -16 270 -22 228 -21
1412 -24 1855 -5 624 26 713 34 1215 107 39 5 108 17 155 25 47 8 110 19 140
25 88 15 362 69 400 79 19 4 60 13 90 20 30 6 80 17 110 25 30 7 125 30 210
50 85 20 175 42 200 50 95 29 306 96 325 104 11 5 45 19 75 31 90 36 223 105
278 144 l51 37 7 -26 c11 -46 -3 -217 -22 -270 -28 -75 -127 -168 -239 -226
-157 -82 -392 -163 -570 -198 -33 -7 -89 -18 -125 -26 -36 -7 -94 -19 -130
-25 -117 -20 -272 -51 -530 -106 -134 -29 -162 -34 -330 -63 -224 -39 -294
-50 -380 -60 -47 -6 -139 -17 -205 -25 -66 -8 -183 -20 -260 -26 -77 -5 -196
-15 -265 -22 -69 -6 -375 -13 -680 -15 -563 -5 -569 -5 -1205 38 -88 6 -216
17 -285 24 -69 8 -181 19 -250 25 -69 6 -168 17 -220 25 -52 7 -142 19 -200
25 -58 6 -132 16 -165 22 -33 6 -89 14 -125 19 -101 12 -397 57 -459 69 -31 6
-81 16 -111 22 -167 31 -414 98 -650 175 -279 91 -331 105 -600 158 -243 47
-378 88 -474 142 -74 42 -121 85 -149 138 -28 53 -29 214 -3 327 l19 76 66
-30 c36 -16 100 -43 141 -59z"/>
<path d="M3762 11320 c0 -19 2 -27 5 -17 2 9 2 25 0 35 -3 9 -5 1 -5 -18z"/>
</g>
</svg>
